<mxfile host="app.diagrams.net" agent="Mozilla/5.0 (Windows NT 10.0; Win64; x64) AppleWebKit/537.36 (KHTML, like Gecko) Chrome/133.0.0.0 Safari/537.36" version="26.0.16">
  <diagram name="Page-1" id="UZV_4YaNEUYJYQrBW2No">
    <mxGraphModel dx="1868" dy="604" grid="1" gridSize="10" guides="1" tooltips="1" connect="1" arrows="1" fold="1" page="1" pageScale="1" pageWidth="850" pageHeight="1100" math="0" shadow="0">
      <root>
        <mxCell id="0" />
        <mxCell id="1" parent="0" />
        <mxCell id="PtT7ccRdR9juAuZG76jp-39" value="" style="rounded=0;whiteSpace=wrap;html=1;fillColor=#e1d5e7;strokeColor=#9673a6;movable=1;resizable=1;rotatable=1;deletable=1;editable=1;locked=0;connectable=1;" vertex="1" parent="1">
          <mxGeometry x="-780" y="650" width="340" height="400" as="geometry" />
        </mxCell>
        <mxCell id="PtT7ccRdR9juAuZG76jp-40" value="legend:" style="rounded=0;whiteSpace=wrap;html=1;movable=1;resizable=1;rotatable=1;deletable=1;editable=1;locked=0;connectable=1;" vertex="1" parent="1">
          <mxGeometry x="-780" y="650" width="120" height="37.27272727272727" as="geometry" />
        </mxCell>
        <mxCell id="PtT7ccRdR9juAuZG76jp-6" value="" style="rounded=0;whiteSpace=wrap;html=1;fillColor=#f8cecc;strokeColor=#b85450;movable=0;resizable=0;rotatable=0;deletable=0;editable=0;locked=1;connectable=0;" vertex="1" parent="1">
          <mxGeometry x="-310" y="310" width="640" height="330" as="geometry" />
        </mxCell>
        <mxCell id="PtT7ccRdR9juAuZG76jp-3" value="" style="edgeStyle=orthogonalEdgeStyle;rounded=0;orthogonalLoop=1;jettySize=auto;html=1;exitX=0.5;exitY=1;exitDx=0;exitDy=0;" edge="1" parent="1" source="PtT7ccRdR9juAuZG76jp-56" target="PtT7ccRdR9juAuZG76jp-2">
          <mxGeometry relative="1" as="geometry">
            <mxPoint x="220" y="336" as="sourcePoint" />
            <Array as="points" />
          </mxGeometry>
        </mxCell>
        <mxCell id="PtT7ccRdR9juAuZG76jp-5" value="" style="rounded=0;orthogonalLoop=1;jettySize=auto;html=1;entryX=0.5;entryY=0;entryDx=0;entryDy=0;exitX=1;exitY=1;exitDx=0;exitDy=0;" edge="1" parent="1" source="PtT7ccRdR9juAuZG76jp-56" target="PtT7ccRdR9juAuZG76jp-4">
          <mxGeometry relative="1" as="geometry">
            <mxPoint x="240" y="270" as="sourcePoint" />
          </mxGeometry>
        </mxCell>
        <mxCell id="PtT7ccRdR9juAuZG76jp-13" style="rounded=0;orthogonalLoop=1;jettySize=auto;html=1;entryX=0.5;entryY=0;entryDx=0;entryDy=0;exitX=0;exitY=1;exitDx=0;exitDy=0;" edge="1" parent="1" source="PtT7ccRdR9juAuZG76jp-56" target="PtT7ccRdR9juAuZG76jp-10">
          <mxGeometry relative="1" as="geometry">
            <mxPoint x="110" y="270" as="sourcePoint" />
          </mxGeometry>
        </mxCell>
        <mxCell id="PtT7ccRdR9juAuZG76jp-17" value="" style="rounded=0;orthogonalLoop=1;jettySize=auto;html=1;dashed=1;exitX=1;exitY=0.5;exitDx=0;exitDy=0;entryX=0;entryY=0.5;entryDx=0;entryDy=0;" edge="1" parent="1" source="PtT7ccRdR9juAuZG76jp-56" target="PtT7ccRdR9juAuZG76jp-16">
          <mxGeometry relative="1" as="geometry" />
        </mxCell>
        <mxCell id="PtT7ccRdR9juAuZG76jp-58" value="" style="edgeStyle=orthogonalEdgeStyle;rounded=0;orthogonalLoop=1;jettySize=auto;html=1;" edge="1" parent="1" source="PtT7ccRdR9juAuZG76jp-1" target="PtT7ccRdR9juAuZG76jp-56">
          <mxGeometry relative="1" as="geometry" />
        </mxCell>
        <mxCell id="PtT7ccRdR9juAuZG76jp-1" value="Video &lt;br&gt;content" style="whiteSpace=wrap;html=1;aspect=fixed;" vertex="1" parent="1">
          <mxGeometry x="140" y="160" width="80" height="80" as="geometry" />
        </mxCell>
        <mxCell id="PtT7ccRdR9juAuZG76jp-37" value="" style="edgeStyle=orthogonalEdgeStyle;rounded=0;orthogonalLoop=1;jettySize=auto;html=1;" edge="1" parent="1" source="PtT7ccRdR9juAuZG76jp-2" target="PtT7ccRdR9juAuZG76jp-33">
          <mxGeometry relative="1" as="geometry" />
        </mxCell>
        <mxCell id="PtT7ccRdR9juAuZG76jp-2" value="visual &lt;br&gt;content" style="whiteSpace=wrap;html=1;aspect=fixed;" vertex="1" parent="1">
          <mxGeometry x="140" y="390" width="80" height="80" as="geometry" />
        </mxCell>
        <mxCell id="PtT7ccRdR9juAuZG76jp-38" value="" style="edgeStyle=orthogonalEdgeStyle;rounded=0;orthogonalLoop=1;jettySize=auto;html=1;" edge="1" parent="1" source="PtT7ccRdR9juAuZG76jp-4" target="PtT7ccRdR9juAuZG76jp-36">
          <mxGeometry relative="1" as="geometry" />
        </mxCell>
        <mxCell id="PtT7ccRdR9juAuZG76jp-4" value="Text transcript&amp;nbsp;&lt;br&gt;(if available)" style="whiteSpace=wrap;html=1;aspect=fixed;" vertex="1" parent="1">
          <mxGeometry x="240" y="390" width="80" height="80" as="geometry" />
        </mxCell>
        <mxCell id="PtT7ccRdR9juAuZG76jp-7" value="&lt;font style=&quot;font-size: 20px;&quot;&gt;&lt;b&gt;User Flow 1: &lt;/b&gt;&lt;br&gt;user clicks on Video on Youtube, Video link is loads in&lt;/font&gt;" style="text;html=1;align=center;verticalAlign=middle;whiteSpace=wrap;rounded=0;strokeColor=default;spacingTop=10;spacingBottom=10;" vertex="1" parent="1">
          <mxGeometry x="-145" y="40" width="185" height="90" as="geometry" />
        </mxCell>
        <mxCell id="PtT7ccRdR9juAuZG76jp-8" value="&lt;font style=&quot;font-size: 20px;&quot;&gt;User clicks on Video on Youtube, Video link is loading&lt;/font&gt;" style="text;html=1;align=center;verticalAlign=middle;whiteSpace=wrap;rounded=0;" vertex="1" parent="1">
          <mxGeometry x="-420" y="780" width="210" height="90" as="geometry" />
        </mxCell>
        <mxCell id="PtT7ccRdR9juAuZG76jp-9" value="Pipeline part 1: &lt;br&gt;Data extraction and pre-processing" style="rounded=0;whiteSpace=wrap;html=1;" vertex="1" parent="1">
          <mxGeometry x="-310" y="310" width="120" height="60" as="geometry" />
        </mxCell>
        <mxCell id="PtT7ccRdR9juAuZG76jp-24" value="" style="edgeStyle=orthogonalEdgeStyle;rounded=0;orthogonalLoop=1;jettySize=auto;html=1;" edge="1" parent="1" source="PtT7ccRdR9juAuZG76jp-26" target="PtT7ccRdR9juAuZG76jp-23">
          <mxGeometry relative="1" as="geometry" />
        </mxCell>
        <mxCell id="PtT7ccRdR9juAuZG76jp-10" value="Audio&lt;br&gt;content" style="whiteSpace=wrap;html=1;aspect=fixed;" vertex="1" parent="1">
          <mxGeometry x="40" y="390" width="80" height="80" as="geometry" />
        </mxCell>
        <mxCell id="PtT7ccRdR9juAuZG76jp-22" value="" style="edgeStyle=orthogonalEdgeStyle;rounded=0;orthogonalLoop=1;jettySize=auto;html=1;" edge="1" parent="1" source="PtT7ccRdR9juAuZG76jp-16" target="PtT7ccRdR9juAuZG76jp-21">
          <mxGeometry relative="1" as="geometry" />
        </mxCell>
        <mxCell id="PtT7ccRdR9juAuZG76jp-16" value="ERROR: &lt;br&gt;transcript not available" style="rhombus;whiteSpace=wrap;html=1;" vertex="1" parent="1">
          <mxGeometry x="365" y="250" width="120" height="120" as="geometry" />
        </mxCell>
        <mxCell id="PtT7ccRdR9juAuZG76jp-60" value="" style="edgeStyle=orthogonalEdgeStyle;rounded=0;orthogonalLoop=1;jettySize=auto;html=1;" edge="1" parent="1" source="PtT7ccRdR9juAuZG76jp-21" target="PtT7ccRdR9juAuZG76jp-4">
          <mxGeometry relative="1" as="geometry" />
        </mxCell>
        <mxCell id="PtT7ccRdR9juAuZG76jp-21" value="&lt;font style=&quot;font-size: 10px;&quot;&gt;TTS &lt;br&gt;model&lt;/font&gt;" style="ellipse;whiteSpace=wrap;html=1;" vertex="1" parent="1">
          <mxGeometry x="395" y="400" width="60" height="60" as="geometry" />
        </mxCell>
        <mxCell id="PtT7ccRdR9juAuZG76jp-23" value="Audio&lt;br&gt;content" style="whiteSpace=wrap;html=1;aspect=fixed;" vertex="1" parent="1">
          <mxGeometry x="40" y="607.27" width="80" height="80" as="geometry" />
        </mxCell>
        <mxCell id="PtT7ccRdR9juAuZG76jp-25" value="" style="edgeStyle=orthogonalEdgeStyle;rounded=0;orthogonalLoop=1;jettySize=auto;html=1;" edge="1" parent="1" source="PtT7ccRdR9juAuZG76jp-10" target="PtT7ccRdR9juAuZG76jp-26">
          <mxGeometry relative="1" as="geometry">
            <mxPoint x="80" y="470" as="sourcePoint" />
            <mxPoint x="80" y="640" as="targetPoint" />
          </mxGeometry>
        </mxCell>
        <mxCell id="PtT7ccRdR9juAuZG76jp-26" value="audio to spectrogram software" style="ellipse;whiteSpace=wrap;html=1;aspect=fixed;" vertex="1" parent="1">
          <mxGeometry x="40" y="490" width="80" height="80" as="geometry" />
        </mxCell>
        <mxCell id="PtT7ccRdR9juAuZG76jp-31" value="" style="edgeStyle=orthogonalEdgeStyle;rounded=0;orthogonalLoop=1;jettySize=auto;html=1;" edge="1" source="PtT7ccRdR9juAuZG76jp-33" target="PtT7ccRdR9juAuZG76jp-32" parent="1">
          <mxGeometry relative="1" as="geometry" />
        </mxCell>
        <mxCell id="PtT7ccRdR9juAuZG76jp-32" value="encoded frame data" style="whiteSpace=wrap;html=1;aspect=fixed;" vertex="1" parent="1">
          <mxGeometry x="140" y="740" width="80" height="80" as="geometry" />
        </mxCell>
        <mxCell id="PtT7ccRdR9juAuZG76jp-33" value="max&amp;nbsp;" style="ellipse;whiteSpace=wrap;html=1;aspect=fixed;" vertex="1" parent="1">
          <mxGeometry x="140" y="490" width="80" height="80" as="geometry" />
        </mxCell>
        <mxCell id="PtT7ccRdR9juAuZG76jp-34" value="" style="edgeStyle=orthogonalEdgeStyle;rounded=0;orthogonalLoop=1;jettySize=auto;html=1;" edge="1" source="PtT7ccRdR9juAuZG76jp-36" target="PtT7ccRdR9juAuZG76jp-35" parent="1">
          <mxGeometry relative="1" as="geometry" />
        </mxCell>
        <mxCell id="PtT7ccRdR9juAuZG76jp-35" value="Audio&lt;br&gt;content" style="whiteSpace=wrap;html=1;aspect=fixed;" vertex="1" parent="1">
          <mxGeometry x="240" y="600" width="80" height="80" as="geometry" />
        </mxCell>
        <mxCell id="PtT7ccRdR9juAuZG76jp-36" value="audio to spectrogram software" style="ellipse;whiteSpace=wrap;html=1;aspect=fixed;" vertex="1" parent="1">
          <mxGeometry x="240" y="490" width="80" height="80" as="geometry" />
        </mxCell>
        <mxCell id="PtT7ccRdR9juAuZG76jp-43" value="data" style="rounded=0;whiteSpace=wrap;html=1;" vertex="1" parent="1">
          <mxGeometry x="-740" y="710" width="80" height="40" as="geometry" />
        </mxCell>
        <mxCell id="PtT7ccRdR9juAuZG76jp-44" value="processing software" style="ellipse;whiteSpace=wrap;html=1;aspect=fixed;" vertex="1" parent="1">
          <mxGeometry x="-740" y="760" width="80" height="80" as="geometry" />
        </mxCell>
        <mxCell id="PtT7ccRdR9juAuZG76jp-45" value="Model" style="rounded=1;whiteSpace=wrap;html=1;" vertex="1" parent="1">
          <mxGeometry x="-740" y="850" width="80" height="40" as="geometry" />
        </mxCell>
        <mxCell id="PtT7ccRdR9juAuZG76jp-46" value="error flow" style="rhombus;whiteSpace=wrap;html=1;" vertex="1" parent="1">
          <mxGeometry x="-650" y="760" width="80" height="80" as="geometry" />
        </mxCell>
        <mxCell id="PtT7ccRdR9juAuZG76jp-48" value="" style="rounded=0;whiteSpace=wrap;html=1;fillColor=#fff2cc;strokeColor=#d6b656;movable=0;resizable=0;rotatable=0;deletable=0;editable=0;locked=1;connectable=0;" vertex="1" parent="1">
          <mxGeometry x="-780" y="300" width="340" height="280" as="geometry" />
        </mxCell>
        <mxCell id="PtT7ccRdR9juAuZG76jp-49" value="Goals:" style="rounded=0;whiteSpace=wrap;html=1;movable=1;resizable=1;rotatable=1;deletable=1;editable=1;locked=0;connectable=1;" vertex="1" parent="1">
          <mxGeometry x="-780" y="300" width="120" height="37.27272727272727" as="geometry" />
        </mxCell>
        <mxCell id="PtT7ccRdR9juAuZG76jp-50" value="completes process in 3s" style="rounded=0;whiteSpace=wrap;html=1;" vertex="1" parent="1">
          <mxGeometry x="-780" y="360" width="120" height="60" as="geometry" />
        </mxCell>
        <mxCell id="PtT7ccRdR9juAuZG76jp-51" value="High accuracy, risk averse model but still accurate, min 80%" style="rounded=0;whiteSpace=wrap;html=1;" vertex="1" parent="1">
          <mxGeometry x="-780" y="460" width="120" height="60" as="geometry" />
        </mxCell>
        <mxCell id="PtT7ccRdR9juAuZG76jp-53" value="Use Case" style="shape=hexagon;perimeter=hexagonPerimeter2;whiteSpace=wrap;html=1;fixedSize=1;" vertex="1" parent="1">
          <mxGeometry x="-650" y="850" width="80" height="40" as="geometry" />
        </mxCell>
        <mxCell id="PtT7ccRdR9juAuZG76jp-55" value="USP&amp;nbsp;" style="triangle;whiteSpace=wrap;html=1;" vertex="1" parent="1">
          <mxGeometry x="-560" y="760" width="80" height="80" as="geometry" />
        </mxCell>
        <mxCell id="PtT7ccRdR9juAuZG76jp-56" value="Youtube &lt;br&gt;API" style="ellipse;whiteSpace=wrap;html=1;aspect=fixed;" vertex="1" parent="1">
          <mxGeometry x="140" y="270" width="80" height="80" as="geometry" />
        </mxCell>
      </root>
    </mxGraphModel>
  </diagram>
</mxfile>
